<?xml version="1.0" encoding="UTF-8" standalone="no"?>
<svg
   xmlns:dc="http://purl.org/dc/elements/1.1/"
   xmlns:cc="http://creativecommons.org/ns#"
   xmlns:rdf="http://www.w3.org/1999/02/22-rdf-syntax-ns#"
   xmlns:svg="http://www.w3.org/2000/svg"
   xmlns="http://www.w3.org/2000/svg"
   xmlns:xlink="http://www.w3.org/1999/xlink"
   xmlns:sodipodi="http://sodipodi.sourceforge.net/DTD/sodipodi-0.dtd"
   xmlns:inkscape="http://www.inkscape.org/namespaces/inkscape"
   sodipodi:docname="hourglassLogoSvg.svg"
   inkscape:version="1.0 (4035a4fb49, 2020-05-01)"
   id="svg8"
   version="1.1"
   viewBox="0 0 81.58152 108.77535"
   height="108.77535mm"
   width="81.58152mm">
  <defs
     id="defs2">
    <linearGradient
       id="linearGradient885-3"
       inkscape:collect="always">
      <stop
         id="stop881"
         offset="0"
         style="stop-color:#54ed25;stop-opacity:1" />
      <stop
         id="stop883"
         offset="1"
         style="stop-color:#fff000;stop-opacity:0.99196786" />
    </linearGradient>
    <style
       id="style16">
      .cls-1 {
        fill: #fff;
        fill-rule: evenodd;
      }
    </style>
    <linearGradient
       gradientUnits="userSpaceOnUse"
       y2="-15.473233"
       x2="-19.218613"
       y1="86.060791"
       x1="-120.39699"
       id="linearGradient887"
       xlink:href="#linearGradient885-3"
       inkscape:collect="always" />
  </defs>
  <sodipodi:namedview
     inkscape:window-maximized="0"
     inkscape:window-y="108"
     inkscape:window-x="2154"
     inkscape:window-height="1011"
     inkscape:window-width="1904"
     borderlayer="false"
     inkscape:pagecheckerboard="true"
     inkscape:snap-to-guides="true"
     inkscape:snap-grids="true"
     inkscape:snap-page="false"
     showgrid="false"
     inkscape:document-rotation="0"
     inkscape:current-layer="layer1"
     inkscape:document-units="mm"
     inkscape:cy="176.0249"
     inkscape:cx="330.46273"
     inkscape:zoom="1.3878105"
     inkscape:pageshadow="2"
     inkscape:pageopacity="1"
     borderopacity="1"
     bordercolor="#666666"
     pagecolor="#ffffff"
     id="base">
    <inkscape:grid
       originy="44.41685"
       originx="213.10486"
       id="grid852"
       type="xygrid" />
  </sodipodi:namedview>
  <metadata
     id="metadata5">
    <rdf:RDF>
      <cc:Work
         rdf:about="">
        <dc:format>image/svg+xml</dc:format>
        <dc:type
           rdf:resource="http://purl.org/dc/dcmitype/StillImage" />
        <dc:title></dc:title>
      </cc:Work>
    </rdf:RDF>
  </metadata>
  <g
     transform="translate(106.55243,22.208426)"
     style="display:inline"
     id="layer1"
     inkscape:groupmode="layer"
     inkscape:label="piTime text">
    <path
       style="fill:url(#linearGradient887);fill-opacity:1;stroke-width:0.212451"
       fill="currentColor"
       d="m -30.069756,-22.208426 h -71.383824 c -2.81605,0 -5.09885,2.282796 -5.09885,5.098845 v 3.39923 c 0,2.816048 2.2828,5.0988428 5.09885,5.0988428 0,19.3256842 10.838441,35.6354042 25.673103,40.7907542 -14.834662,5.15536 -25.673103,21.46508 -25.673103,40.79076 -2.81605,0 -5.09885,2.2828 -5.09885,5.09884 v 3.39924 c 0,2.81605 2.2828,5.09884 5.09885,5.09884 h 71.383824 c 2.816049,0 5.098844,-2.28279 5.098844,-5.09884 v -3.39924 c 0,-2.81604 -2.282795,-5.09884 -5.098844,-5.09884 0,-19.32568 -10.838443,-35.6354 -25.673109,-40.79076 14.834666,-5.15535 25.673109,-21.46507 25.673109,-40.7907542 2.816049,0 5.098844,-2.2827948 5.098844,-5.0988428 v -3.39923 c 0,-2.816049 -2.282795,-5.098845 -5.098844,-5.098845 z m -15.95046,81.581512 h -39.48248 c 3.624218,-9.94211 11.06789,-16.99615 19.741025,-16.99615 8.672502,0 16.117021,7.05255 19.741455,16.99615 z m 0.0041,-54.3876752 h -39.48696 c -1.506284,-4.13261397 -2.353537,-8.764064 -2.353537,-13.596919 h 44.189989 c 0,4.844964 -0.847042,9.47259003 -2.349504,13.596919 z"
       id="path854" />
  </g>
  <g
     transform="translate(106.55243,22.208426)"
     style="display:none"
     inkscape:label="Icon"
     id="layer2"
     inkscape:groupmode="layer">
    <image
       sodipodi:absref="F:\Projects\piTime\TextLogo.png"
       xlink:href="TextLogo.png"
       style="display:inline"
       y="-36.28363"
       x="-124.14153"
       width="351.31702"
       height="136.17741"
       preserveAspectRatio="none"
       id="image875" />
  </g>
</svg>
