<svg xmlns="http://www.w3.org/2000/svg" xmlns:svg="http://www.w3.org/2000/svg" xmlns:xlink="http://www.w3.org/1999/xlink" id="svg8" width="308.34" height="411.119" version="1.1" viewBox="0 0 81.582 108.775"><defs id="defs2"><linearGradient id="linearGradient885-3"><stop id="stop881" offset="0" style="stop-color:#54ed25;stop-opacity:1"/><stop id="stop883" offset="1" style="stop-color:#fff000;stop-opacity:.99196786"/></linearGradient><style id="style16"/><linearGradient id="linearGradient887" x1="-120.397" x2="-19.219" y1="86.061" y2="-15.473" gradientUnits="userSpaceOnUse" xlink:href="#linearGradient885-3"/></defs><metadata id="metadata5"/><g style="display:inline" id="piTime" transform="translate(106.55243,22.208426)"><path style="fill:url(#linearGradient887);fill-opacity:1;stroke-width:.212451" id="path854" fill="currentColor" d="m -30.069756,-22.208426 h -71.383824 c -2.81605,0 -5.09885,2.282796 -5.09885,5.098845 v 3.39923 c 0,2.816048 2.2828,5.0988428 5.09885,5.0988428 0,19.3256842 10.838441,35.6354042 25.673103,40.7907542 -14.834662,5.15536 -25.673103,21.46508 -25.673103,40.79076 -2.81605,0 -5.09885,2.2828 -5.09885,5.09884 v 3.39924 c 0,2.81605 2.2828,5.09884 5.09885,5.09884 h 71.383824 c 2.816049,0 5.098844,-2.28279 5.098844,-5.09884 v -3.39924 c 0,-2.81604 -2.282795,-5.09884 -5.098844,-5.09884 0,-19.32568 -10.838443,-35.6354 -25.673109,-40.79076 14.834666,-5.15535 25.673109,-21.46507 25.673109,-40.7907542 2.816049,0 5.098844,-2.2827948 5.098844,-5.0988428 v -3.39923 c 0,-2.816049 -2.282795,-5.098845 -5.098844,-5.098845 z m -15.95046,81.581512 h -39.48248 c 3.624218,-9.94211 11.06789,-16.99615 19.741025,-16.99615 8.672502,0 16.117021,7.05255 19.741455,16.99615 z m 0.0041,-54.3876752 h -39.48696 c -1.506284,-4.13261397 -2.353537,-8.764064 -2.353537,-13.596919 h 44.189989 c 0,4.844964 -0.847042,9.47259003 -2.349504,13.596919 z"/></g></svg>